<svg width="1240" height="1240" viewBox="0 0 1240 1240" fill="none" xmlns="http://www.w3.org/2000/svg">
<path d="M1240 620C1240 701.42 1223.96 782.042 1192.81 857.264C1161.65 932.486 1115.98 1000.83 1058.41 1058.41C1000.83 1115.98 932.486 1161.65 857.264 1192.81C782.042 1223.96 701.42 1240 620 1240L620 1118.85C685.511 1118.85 750.38 1105.95 810.903 1080.88C871.427 1055.81 926.421 1019.07 972.744 972.744C1019.07 926.421 1055.81 871.427 1080.88 810.903C1105.95 750.38 1118.85 685.511 1118.85 620H1240Z" fill="url(#paint0_linear_24_44)"/>
<path d="M1240 620C1240 701.42 1223.96 782.042 1192.81 857.264C1161.65 932.486 1115.98 1000.83 1058.41 1058.41C1000.83 1115.98 932.486 1161.65 857.264 1192.81C782.042 1223.96 701.42 1240 620 1240L620 1118.85C685.511 1118.85 750.38 1105.95 810.903 1080.88C871.427 1055.81 926.421 1019.07 972.744 972.744C1019.07 926.421 1055.81 871.427 1080.88 810.903C1105.95 750.38 1118.85 685.511 1118.85 620H1240Z" fill="url(#paint1_linear_24_44)"/>
<path d="M374.964 852.795V372.912H689.612V456.701H472.229V571.545H666.761V654.162H472.229V852.795H374.964ZM734.144 852.795V500.061H823.792V529.944C831.214 519.006 841.761 509.631 855.433 501.819C869.495 493.615 885.12 489.514 902.308 489.514C922.62 489.514 937.073 491.662 945.667 495.959V581.506C931.995 577.209 917.542 575.061 902.308 575.061C877.308 575.061 858.558 584.826 846.058 604.358C833.948 623.889 827.894 650.061 827.894 682.873V852.795H734.144Z" fill="url(#paint2_linear_24_44)"/>
<path d="M0 620C0 538.58 16.0368 457.958 47.1947 382.736C78.3526 307.514 124.021 239.166 181.594 181.594C239.166 124.021 307.514 78.3526 382.736 47.1947C457.958 16.0368 538.58 -3.55896e-06 620 0L620 121.145C554.489 121.145 489.62 134.048 429.097 159.118C368.573 184.188 313.579 220.933 267.256 267.256C220.933 313.579 184.188 368.573 159.118 429.097C134.048 489.62 121.145 554.489 121.145 620H0Z" fill="url(#paint3_linear_24_44)"/>
<path d="M0 620C0 538.58 16.0368 457.958 47.1947 382.736C78.3526 307.514 124.021 239.166 181.594 181.594C239.166 124.021 307.514 78.3526 382.736 47.1947C457.958 16.0368 538.58 -3.55896e-06 620 0L620 121.145C554.489 121.145 489.62 134.048 429.097 159.118C368.573 184.188 313.579 220.933 267.256 267.256C220.933 313.579 184.188 368.573 159.118 429.097C134.048 489.62 121.145 554.489 121.145 620H0Z" fill="url(#paint4_linear_24_44)"/>
<defs>
<linearGradient id="paint0_linear_24_44" x1="620" y1="0" x2="620" y2="1240" gradientUnits="userSpaceOnUse">
<stop stop-color="white"/>
<stop offset="0.0001" stop-color="#6CDCFF"/>
</linearGradient>
<linearGradient id="paint1_linear_24_44" x1="620" y1="0" x2="620" y2="1240" gradientUnits="userSpaceOnUse">
<stop stop-color="#338BA7"/>
<stop offset="1" stop-color="#105C74"/>
</linearGradient>
<linearGradient id="paint2_linear_24_44" x1="642.41" y1="298.795" x2="642.41" y2="1045.78" gradientUnits="userSpaceOnUse">
<stop stop-color="#338BA7"/>
<stop offset="1" stop-color="#105C74"/>
</linearGradient>
<linearGradient id="paint3_linear_24_44" x1="620" y1="1240" x2="620" y2="0" gradientUnits="userSpaceOnUse">
<stop stop-color="white"/>
<stop offset="0.0001" stop-color="#6CDCFF"/>
</linearGradient>
<linearGradient id="paint4_linear_24_44" x1="620" y1="1240" x2="620" y2="0" gradientUnits="userSpaceOnUse">
<stop stop-color="#105C74"/>
<stop offset="1" stop-color="#338BA7"/>
</linearGradient>
</defs>
</svg>
