<svg width="1240" height="1240" viewBox="0 0 1240 1240" fill="none" xmlns="http://www.w3.org/2000/svg">
<path d="M1240 620C1240 701.42 1223.96 782.042 1192.81 857.264C1161.65 932.486 1115.98 1000.83 1058.41 1058.41C1000.83 1115.98 932.486 1161.65 857.264 1192.81C782.042 1223.96 701.42 1240 620 1240L620 1055.99C677.254 1055.99 733.948 1044.71 786.845 1022.8C839.741 1000.89 887.804 968.774 928.289 928.289C968.774 887.804 1000.89 839.741 1022.8 786.845C1044.71 733.948 1055.99 677.254 1055.99 620H1240Z" fill="#00599C"/>
<path d="M374.964 852.795V372.912H689.612V456.701H472.229V571.545H666.761V654.162H472.229V852.795H374.964ZM734.144 852.795V500.061H823.792V529.944C831.214 519.006 841.761 509.631 855.433 501.819C869.495 493.615 885.12 489.514 902.308 489.514C922.62 489.514 937.073 491.662 945.667 495.959V581.506C931.995 577.209 917.542 575.061 902.308 575.061C877.308 575.061 858.558 584.826 846.058 604.358C833.948 623.889 827.894 650.061 827.894 682.873V852.795H734.144Z" fill="#00599C"/>
<path d="M0 620C0 538.58 16.0368 457.958 47.1947 382.736C78.3526 307.514 124.021 239.166 181.594 181.594C239.166 124.021 307.514 78.3526 382.736 47.1947C457.958 16.0368 538.58 -3.55896e-06 620 0L620 183.855C562.725 183.855 506.01 195.136 453.095 217.054C400.179 238.973 352.099 271.099 311.599 311.599C271.099 352.099 238.973 400.179 217.054 453.094C195.136 506.01 183.855 562.725 183.855 620H0Z" fill="#00599C"/>
</svg>
