<svg width="291" height="83" viewBox="0 0 291 83" fill="none" xmlns="http://www.w3.org/2000/svg">
<path d="M20.4766 57V26.1016H40.1641V30.5156H25.6328V39.3438H38.6406V43.6797H25.6328V57H20.4766ZM43.4062 57V34.4609H48.1719V36.8828C48.6667 36.0495 49.3698 35.3203 50.2812 34.6953C51.2188 34.0703 52.3255 33.7578 53.6016 33.7578C54.7995 33.7578 55.776 33.9271 56.5312 34.2656V38.7578C55.5417 38.4453 54.5651 38.2891 53.6016 38.2891C51.9089 38.2891 50.6068 38.9531 49.6953 40.2812C48.8099 41.5833 48.3672 43.3281 48.3672 45.5156V57H43.4062ZM62.7812 50.6719C62.7812 51.5052 63.1068 52.2083 63.7578 52.7812C64.4349 53.3281 65.3203 53.6016 66.4141 53.6016C67.9766 53.6016 69.3047 53.0807 70.3984 52.0391C71.5182 50.9974 72.0781 49.6302 72.0781 47.9375V45.8672C70.8802 46.1536 69.4349 46.4271 67.7422 46.6875C64.4349 47.2083 62.7812 48.5365 62.7812 50.6719ZM57.7812 51.1016C57.7812 46.8568 60.9323 44.2656 67.2344 43.3281C69.526 42.9896 71.1406 42.6771 72.0781 42.3906V41.1797C72.0781 40.0859 71.6875 39.2266 70.9062 38.6016C70.125 37.9766 69.0833 37.6641 67.7812 37.6641C65.3073 37.6641 63.1719 38.6797 61.375 40.7109L58.3672 38.1328C59.5391 36.7526 60.9323 35.6849 62.5469 34.9297C64.1875 34.1484 65.9062 33.7578 67.7031 33.7578C71.0625 33.7578 73.4583 34.5781 74.8906 36.2188C76.3229 37.8333 77.0391 40.099 77.0391 43.0156V57H72.2344V54.1875C71.7656 55.151 70.9453 55.9844 69.7734 56.6875C68.6276 57.3646 67.2734 57.7031 65.7109 57.7031C63.237 57.7031 61.2969 57.0911 59.8906 55.8672C58.4844 54.6432 57.7812 53.0547 57.7812 51.1016ZM63.8359 30.8281L68.2891 23.4453H74.2656L68.0156 30.8281H63.8359ZM85.9844 45.3203C85.9844 47.612 86.4271 49.3958 87.3125 50.6719C88.224 51.9479 89.4219 52.5859 90.9062 52.5859C92.3646 52.5859 93.5365 51.9609 94.4219 50.7109C95.3073 49.4609 95.75 47.651 95.75 45.2812C95.75 42.9635 95.3073 41.1667 94.4219 39.8906C93.5365 38.6146 92.3776 37.9766 90.9453 37.9766C89.4349 37.9766 88.224 38.6406 87.3125 39.9688C86.4271 41.2969 85.9844 43.0807 85.9844 45.3203ZM80.9453 45.3594C80.9453 41.8438 81.8177 39.0312 83.5625 36.9219C85.3073 34.8125 87.5469 33.7578 90.2812 33.7578C91.6615 33.7578 92.8203 34.1094 93.7578 34.8125C94.7214 35.4896 95.3984 36.2448 95.7891 37.0781V34.4609H100.711V53.875C100.711 58.1198 99.8776 61.2578 98.2109 63.2891C96.5703 65.3464 94.0312 66.375 90.5938 66.375C86.8177 66.375 83.888 64.9167 81.8047 62L85.0859 59.7344C86.5964 61.5052 88.4583 62.3906 90.6719 62.3906C92.1042 62.3906 93.2891 61.8438 94.2266 60.75C95.1641 59.6562 95.6719 58.224 95.75 56.4531C95.8021 55.4115 95.8281 54.5521 95.8281 53.875C95.3333 54.7083 94.5911 55.4115 93.6016 55.9844C92.612 56.5312 91.5573 56.8047 90.4375 56.8047C87.599 56.8047 85.3073 55.763 83.5625 53.6797C81.8177 51.5703 80.9453 48.7969 80.9453 45.3594ZM106.023 57V34.4609H110.828V37.0781C111.219 36.3229 111.922 35.5807 112.938 34.8516C113.953 34.1224 115.177 33.7578 116.609 33.7578C119.083 33.7578 120.906 35.099 122.078 37.7812C122.26 37.4167 122.495 37.0521 122.781 36.6875C123.094 36.3229 123.51 35.8932 124.031 35.3984C124.578 34.9036 125.268 34.513 126.102 34.2266C126.961 33.9141 127.885 33.7578 128.875 33.7578C133.484 33.7578 135.789 36.6745 135.789 42.5078V57H130.789V42.6641C130.789 41.1016 130.568 39.9297 130.125 39.1484C129.682 38.3672 128.901 37.9766 127.781 37.9766C126.453 37.9766 125.372 38.5365 124.539 39.6562C123.732 40.75 123.328 42.1042 123.328 43.7188V57H118.445V42.5469C118.445 39.5 117.43 37.9766 115.398 37.9766C113.992 37.9766 112.898 38.4974 112.117 39.5391C111.362 40.5807 110.984 41.9479 110.984 43.6406V57H106.023ZM144.539 50.6719C144.539 51.5052 144.865 52.2083 145.516 52.7812C146.193 53.3281 147.078 53.6016 148.172 53.6016C149.734 53.6016 151.062 53.0807 152.156 52.0391C153.276 50.9974 153.836 49.6302 153.836 47.9375V45.8672C152.638 46.1536 151.193 46.4271 149.5 46.6875C146.193 47.2083 144.539 48.5365 144.539 50.6719ZM139.539 51.1016C139.539 46.8568 142.69 44.2656 148.992 43.3281C151.284 42.9896 152.898 42.6771 153.836 42.3906V41.1797C153.836 40.0859 153.445 39.2266 152.664 38.6016C151.883 37.9766 150.841 37.6641 149.539 37.6641C147.065 37.6641 144.93 38.6797 143.133 40.7109L140.125 38.1328C141.297 36.7526 142.69 35.6849 144.305 34.9297C145.945 34.1484 147.664 33.7578 149.461 33.7578C152.82 33.7578 155.216 34.5781 156.648 36.2188C158.081 37.8333 158.797 40.099 158.797 43.0156V57H153.992V54.1875C153.523 55.151 152.703 55.9844 151.531 56.6875C150.385 57.3646 149.031 57.7031 147.469 57.7031C144.995 57.7031 143.055 57.0911 141.648 55.8672C140.242 54.6432 139.539 53.0547 139.539 51.1016ZM162.234 50.3984L166.766 48.875C167.495 50.1771 168.549 51.2448 169.93 52.0781C171.31 52.8854 172.833 53.2891 174.5 53.2891C176.219 53.2891 177.599 52.8724 178.641 52.0391C179.682 51.2057 180.203 50.125 180.203 48.7969C180.203 47.3906 179.643 46.2969 178.523 45.5156C177.43 44.7344 175.815 43.9792 173.68 43.25C170.633 42.2344 168.576 41.4271 167.508 40.8281C164.721 39.2396 163.328 36.9349 163.328 33.9141C163.328 31.362 164.331 29.3047 166.336 27.7422C168.341 26.1797 170.958 25.3984 174.188 25.3984C176.844 25.3984 179.109 26.0234 180.984 27.2734C182.885 28.4974 184.266 30.0729 185.125 32L180.789 33.4453C179.122 31.0234 176.909 29.8125 174.148 29.8125C172.456 29.8125 171.115 30.1901 170.125 30.9453C169.135 31.7005 168.641 32.6901 168.641 33.9141C168.641 34.2786 168.68 34.6302 168.758 34.9688C168.836 35.2812 168.992 35.5807 169.227 35.8672C169.461 36.1536 169.669 36.401 169.852 36.6094C170.034 36.8177 170.333 37.0391 170.75 37.2734C171.167 37.5078 171.492 37.6901 171.727 37.8203C171.987 37.9505 172.404 38.1198 172.977 38.3281C173.549 38.5365 173.953 38.6797 174.188 38.7578C174.448 38.8359 174.917 38.9922 175.594 39.2266C176.271 39.4349 176.727 39.5781 176.961 39.6562C178.159 40.0469 179.214 40.4635 180.125 40.9062C181.036 41.349 181.922 41.9219 182.781 42.625C183.667 43.3021 184.344 44.1484 184.812 45.1641C185.281 46.1797 185.516 47.3255 185.516 48.6016C185.516 51.4922 184.474 53.7318 182.391 55.3203C180.333 56.9089 177.664 57.7031 174.383 57.7031C171.544 57.7031 169.057 57.0521 166.922 55.75C164.786 54.4219 163.224 52.638 162.234 50.3984ZM189.656 57V25.0859H194.539V36.7656H194.656C195.255 35.9062 196.076 35.1901 197.117 34.6172C198.185 34.0443 199.305 33.7578 200.477 33.7578C202.638 33.7578 204.435 34.4609 205.867 35.8672C207.299 37.2474 208.016 39.4609 208.016 42.5078V57H203.094V43.1328C203.094 39.6953 201.922 37.9766 199.578 37.9766C198.146 37.9766 196.948 38.5885 195.984 39.8125C195.021 41.0365 194.539 42.4688 194.539 44.1094V57H189.656ZM216.805 50.6719C216.805 51.5052 217.13 52.2083 217.781 52.7812C218.458 53.3281 219.344 53.6016 220.438 53.6016C222 53.6016 223.328 53.0807 224.422 52.0391C225.542 50.9974 226.102 49.6302 226.102 47.9375V45.8672C224.904 46.1536 223.458 46.4271 221.766 46.6875C218.458 47.2083 216.805 48.5365 216.805 50.6719ZM211.805 51.1016C211.805 46.8568 214.956 44.2656 221.258 43.3281C223.549 42.9896 225.164 42.6771 226.102 42.3906V41.1797C226.102 40.0859 225.711 39.2266 224.93 38.6016C224.148 37.9766 223.107 37.6641 221.805 37.6641C219.331 37.6641 217.195 38.6797 215.398 40.7109L212.391 38.1328C213.562 36.7526 214.956 35.6849 216.57 34.9297C218.211 34.1484 219.93 33.7578 221.727 33.7578C225.086 33.7578 227.482 34.5781 228.914 36.2188C230.346 37.8333 231.062 40.099 231.062 43.0156V57H226.258V54.1875C225.789 55.151 224.969 55.9844 223.797 56.6875C222.651 57.3646 221.297 57.7031 219.734 57.7031C217.26 57.7031 215.32 57.0911 213.914 55.8672C212.508 54.6432 211.805 53.0547 211.805 51.1016ZM236.141 57V34.4609H240.906V36.8828C241.401 36.0495 242.104 35.3203 243.016 34.6953C243.953 34.0703 245.06 33.7578 246.336 33.7578C247.534 33.7578 248.51 33.9271 249.266 34.2656V38.7578C248.276 38.4453 247.299 38.2891 246.336 38.2891C244.643 38.2891 243.341 38.9531 242.43 40.2812C241.544 41.5833 241.102 43.3281 241.102 45.5156V57H236.141ZM250.555 45.6328C250.555 42.013 251.544 39.1354 253.523 37C255.529 34.8385 258.042 33.7578 261.062 33.7578C264.031 33.7578 266.479 34.8385 268.406 37C270.333 39.1615 271.297 41.974 271.297 45.4375C271.297 46.1146 271.258 46.7786 271.18 47.4297H255.555C255.555 49.1484 256.062 50.6328 257.078 51.8828C258.12 53.1068 259.539 53.7188 261.336 53.7188C262.586 53.7188 263.68 53.4193 264.617 52.8203C265.581 52.1953 266.31 51.401 266.805 50.4375L270.945 51.8438C270.216 53.5104 269.031 54.9036 267.391 56.0234C265.75 57.1432 263.706 57.7031 261.258 57.7031C258.107 57.7031 255.529 56.6094 253.523 54.4219C251.544 52.2344 250.555 49.3047 250.555 45.6328ZM255.633 43.9531H266.258C266.258 42.2344 265.802 40.776 264.891 39.5781C263.979 38.3542 262.703 37.7422 261.062 37.7422C259.422 37.7422 258.107 38.3672 257.117 39.6172C256.154 40.8411 255.659 42.2865 255.633 43.9531Z" fill="#00599C"/>
<path d="M291 41.5C291 46.9499 289.927 52.3464 287.841 57.3814C285.755 62.4164 282.699 66.9913 278.845 70.8449C274.991 74.6986 270.416 77.7554 265.381 79.841C260.346 81.9266 254.95 83 249.5 83L249.5 70.8129C253.349 70.8129 257.161 70.0547 260.718 68.5815C264.274 67.1084 267.505 64.9493 270.227 62.2273C272.949 59.5054 275.108 56.2739 276.582 52.7175C278.055 49.1611 278.813 45.3494 278.813 41.5H291Z" fill="#00599C"/>
<path d="M0 41.5C0 36.0501 1.07343 30.6536 3.159 25.6186C5.24457 20.5836 8.30144 16.0087 12.1551 12.1551C16.0087 8.30144 20.5836 5.24457 25.6186 3.159C30.6537 1.07343 36.0501 -2.38221e-07 41.5 0L41.5 12.2452C37.6582 12.2452 33.854 13.0019 30.3047 14.472C26.7553 15.9422 23.5303 18.0971 20.8137 20.8137C18.0971 23.5303 15.9422 26.7553 14.472 30.3047C13.0019 33.854 12.2452 37.6582 12.2452 41.5H0Z" fill="#00599C"/>
</svg>
